<svg width="400" height="300" viewBox="0 0 400 300" fill="none" xmlns="http://www.w3.org/2000/svg">
  <!-- Proposer -->
  <circle cx="200" cy="50" r="30" stroke="currentColor" strokeWidth="2"/>
  <text x="200" y="55" text-anchor="middle" fill="currentColor" fontSize="12">Proposer</text>
  
  <!-- Acceptors -->
  <circle cx="100" cy="150" r="30" stroke="currentColor" strokeWidth="2"/>
  <circle cx="200" cy="150" r="30" stroke="currentColor" strokeWidth="2"/>
  <circle cx="300" cy="150" r="30" stroke="currentColor" strokeWidth="2"/>
  <text x="100" y="155" text-anchor="middle" fill="currentColor" fontSize="12">A1</text>
  <text x="200" y="155" text-anchor="middle" fill="currentColor" fontSize="12">A2</text>
  <text x="300" y="155" text-anchor="middle" fill="currentColor" fontSize="12">A3</text>
  
  <!-- Learners -->
  <circle cx="150" cy="250" r="30" stroke="currentColor" strokeWidth="2"/>
  <circle cx="250" cy="250" r="30" stroke="currentColor" strokeWidth="2"/>
  <text x="150" y="255" text-anchor="middle" fill="currentColor" fontSize="12">L1</text>
  <text x="250" y="255" text-anchor="middle" fill="currentColor" fontSize="12">L2</text>
  
  <!-- Connections -->
  <path d="M200 80L100 120" stroke="currentColor" strokeWidth="1" opacity="0.5"/>
  <path d="M200 80L200 120" stroke="currentColor" strokeWidth="1" opacity="0.5"/>
  <path d="M200 80L300 120" stroke="currentColor" strokeWidth="1" opacity="0.5"/>
  
  <path d="M100 180L150 220" stroke="currentColor" strokeWidth="1" opacity="0.5"/>
  <path d="M200 180L150 220" stroke="currentColor" strokeWidth="1" opacity="0.5"/>
  <path d="M200 180L250 220" stroke="currentColor" strokeWidth="1" opacity="0.5"/>
  <path d="M300 180L250 220" stroke="currentColor" strokeWidth="1" opacity="0.5"/>
</svg> 